<mxfile host="app.diagrams.net" modified="2023-06-04T13:40:27.854Z" agent="Mozilla/5.0 (Windows NT 10.0; Win64; x64; rv:109.0) Gecko/20100101 Firefox/113.0" etag="cDQPhxkbRpVhJ57QdHNa" version="21.3.7" type="device">
  <diagram id="C5RBs43oDa-KdzZeNtuy" name="Page-1">
    <mxGraphModel dx="1304" dy="685" grid="1" gridSize="10" guides="1" tooltips="1" connect="1" arrows="1" fold="1" page="1" pageScale="1" pageWidth="827" pageHeight="1169" math="0" shadow="0">
      <root>
        <mxCell id="WIyWlLk6GJQsqaUBKTNV-0" />
        <mxCell id="WIyWlLk6GJQsqaUBKTNV-1" parent="WIyWlLk6GJQsqaUBKTNV-0" />
        <mxCell id="P2jr7D43vUOo1likfWEo-0" value="&lt;div&gt;Admin&lt;/div&gt;&lt;div&gt;&lt;br&gt;&lt;/div&gt;" style="shape=umlActor;verticalLabelPosition=bottom;verticalAlign=top;html=1;outlineConnect=0;" vertex="1" parent="WIyWlLk6GJQsqaUBKTNV-1">
          <mxGeometry x="330" y="370" width="30" height="60" as="geometry" />
        </mxCell>
        <mxCell id="P2jr7D43vUOo1likfWEo-1" style="rounded=0;orthogonalLoop=1;jettySize=auto;html=1;exitX=0.5;exitY=1;exitDx=0;exitDy=0;entryX=1;entryY=0;entryDx=0;entryDy=0;dashed=1;" edge="1" parent="WIyWlLk6GJQsqaUBKTNV-1" source="P2jr7D43vUOo1likfWEo-3" target="P2jr7D43vUOo1likfWEo-30">
          <mxGeometry relative="1" as="geometry" />
        </mxCell>
        <mxCell id="P2jr7D43vUOo1likfWEo-50" style="edgeStyle=none;rounded=0;orthogonalLoop=1;jettySize=auto;html=1;exitX=0;exitY=0;exitDx=0;exitDy=0;entryX=0.5;entryY=1;entryDx=0;entryDy=0;dashed=1;" edge="1" parent="WIyWlLk6GJQsqaUBKTNV-1" source="P2jr7D43vUOo1likfWEo-3" target="P2jr7D43vUOo1likfWEo-28">
          <mxGeometry relative="1" as="geometry" />
        </mxCell>
        <mxCell id="P2jr7D43vUOo1likfWEo-51" style="edgeStyle=none;rounded=0;orthogonalLoop=1;jettySize=auto;html=1;exitX=0.5;exitY=0;exitDx=0;exitDy=0;entryX=0.5;entryY=1;entryDx=0;entryDy=0;dashed=1;" edge="1" parent="WIyWlLk6GJQsqaUBKTNV-1" source="P2jr7D43vUOo1likfWEo-3" target="P2jr7D43vUOo1likfWEo-24">
          <mxGeometry relative="1" as="geometry" />
        </mxCell>
        <mxCell id="P2jr7D43vUOo1likfWEo-52" style="edgeStyle=none;rounded=0;orthogonalLoop=1;jettySize=auto;html=1;exitX=1;exitY=0;exitDx=0;exitDy=0;entryX=0.5;entryY=1;entryDx=0;entryDy=0;dashed=1;" edge="1" parent="WIyWlLk6GJQsqaUBKTNV-1" source="P2jr7D43vUOo1likfWEo-3" target="P2jr7D43vUOo1likfWEo-23">
          <mxGeometry relative="1" as="geometry" />
        </mxCell>
        <mxCell id="P2jr7D43vUOo1likfWEo-53" style="edgeStyle=none;rounded=0;orthogonalLoop=1;jettySize=auto;html=1;exitX=1;exitY=0.5;exitDx=0;exitDy=0;entryX=0.5;entryY=1;entryDx=0;entryDy=0;dashed=1;" edge="1" parent="WIyWlLk6GJQsqaUBKTNV-1" source="P2jr7D43vUOo1likfWEo-3" target="P2jr7D43vUOo1likfWEo-17">
          <mxGeometry relative="1" as="geometry" />
        </mxCell>
        <mxCell id="P2jr7D43vUOo1likfWEo-54" style="edgeStyle=none;rounded=0;orthogonalLoop=1;jettySize=auto;html=1;exitX=1;exitY=0.5;exitDx=0;exitDy=0;entryX=0;entryY=0.5;entryDx=0;entryDy=0;dashed=1;" edge="1" parent="WIyWlLk6GJQsqaUBKTNV-1" source="P2jr7D43vUOo1likfWEo-3" target="P2jr7D43vUOo1likfWEo-18">
          <mxGeometry relative="1" as="geometry" />
        </mxCell>
        <mxCell id="P2jr7D43vUOo1likfWEo-55" style="edgeStyle=none;rounded=0;orthogonalLoop=1;jettySize=auto;html=1;exitX=1;exitY=0.5;exitDx=0;exitDy=0;entryX=0;entryY=0.5;entryDx=0;entryDy=0;dashed=1;" edge="1" parent="WIyWlLk6GJQsqaUBKTNV-1" source="P2jr7D43vUOo1likfWEo-3" target="P2jr7D43vUOo1likfWEo-19">
          <mxGeometry relative="1" as="geometry" />
        </mxCell>
        <mxCell id="P2jr7D43vUOo1likfWEo-56" style="edgeStyle=none;rounded=0;orthogonalLoop=1;jettySize=auto;html=1;exitX=1;exitY=0.5;exitDx=0;exitDy=0;entryX=0;entryY=0.5;entryDx=0;entryDy=0;dashed=1;" edge="1" parent="WIyWlLk6GJQsqaUBKTNV-1" source="P2jr7D43vUOo1likfWEo-3" target="P2jr7D43vUOo1likfWEo-20">
          <mxGeometry relative="1" as="geometry" />
        </mxCell>
        <mxCell id="P2jr7D43vUOo1likfWEo-58" style="edgeStyle=none;rounded=0;orthogonalLoop=1;jettySize=auto;html=1;exitX=1;exitY=0.5;exitDx=0;exitDy=0;entryX=0;entryY=0.5;entryDx=0;entryDy=0;dashed=1;" edge="1" parent="WIyWlLk6GJQsqaUBKTNV-1" source="P2jr7D43vUOo1likfWEo-3" target="P2jr7D43vUOo1likfWEo-21">
          <mxGeometry relative="1" as="geometry" />
        </mxCell>
        <mxCell id="P2jr7D43vUOo1likfWEo-59" style="edgeStyle=none;rounded=0;orthogonalLoop=1;jettySize=auto;html=1;exitX=1;exitY=1;exitDx=0;exitDy=0;entryX=0;entryY=0;entryDx=0;entryDy=0;dashed=1;" edge="1" parent="WIyWlLk6GJQsqaUBKTNV-1" source="P2jr7D43vUOo1likfWEo-3" target="P2jr7D43vUOo1likfWEo-22">
          <mxGeometry relative="1" as="geometry" />
        </mxCell>
        <mxCell id="P2jr7D43vUOo1likfWEo-60" style="edgeStyle=none;rounded=0;orthogonalLoop=1;jettySize=auto;html=1;exitX=1;exitY=1;exitDx=0;exitDy=0;entryX=0.5;entryY=0;entryDx=0;entryDy=0;dashed=1;" edge="1" parent="WIyWlLk6GJQsqaUBKTNV-1" source="P2jr7D43vUOo1likfWEo-3" target="P2jr7D43vUOo1likfWEo-25">
          <mxGeometry relative="1" as="geometry" />
        </mxCell>
        <mxCell id="P2jr7D43vUOo1likfWEo-61" style="edgeStyle=none;rounded=0;orthogonalLoop=1;jettySize=auto;html=1;exitX=1;exitY=1;exitDx=0;exitDy=0;entryX=0.5;entryY=0;entryDx=0;entryDy=0;dashed=1;" edge="1" parent="WIyWlLk6GJQsqaUBKTNV-1" source="P2jr7D43vUOo1likfWEo-3" target="P2jr7D43vUOo1likfWEo-26">
          <mxGeometry relative="1" as="geometry" />
        </mxCell>
        <mxCell id="P2jr7D43vUOo1likfWEo-62" style="edgeStyle=none;rounded=0;orthogonalLoop=1;jettySize=auto;html=1;exitX=0.5;exitY=1;exitDx=0;exitDy=0;entryX=0.5;entryY=0;entryDx=0;entryDy=0;dashed=1;" edge="1" parent="WIyWlLk6GJQsqaUBKTNV-1" source="P2jr7D43vUOo1likfWEo-3" target="P2jr7D43vUOo1likfWEo-27">
          <mxGeometry relative="1" as="geometry" />
        </mxCell>
        <mxCell id="P2jr7D43vUOo1likfWEo-3" value="Loguearse" style="ellipse;whiteSpace=wrap;html=1;" vertex="1" parent="WIyWlLk6GJQsqaUBKTNV-1">
          <mxGeometry x="420" y="380" width="120" height="50" as="geometry" />
        </mxCell>
        <mxCell id="P2jr7D43vUOo1likfWEo-88" style="edgeStyle=none;rounded=0;orthogonalLoop=1;jettySize=auto;html=1;exitX=0.5;exitY=0;exitDx=0;exitDy=0;entryX=0.5;entryY=1;entryDx=0;entryDy=0;dashed=1;" edge="1" parent="WIyWlLk6GJQsqaUBKTNV-1" source="P2jr7D43vUOo1likfWEo-17" target="P2jr7D43vUOo1likfWEo-84">
          <mxGeometry relative="1" as="geometry" />
        </mxCell>
        <mxCell id="P2jr7D43vUOo1likfWEo-17" value="CRUD User" style="ellipse;whiteSpace=wrap;html=1;" vertex="1" parent="WIyWlLk6GJQsqaUBKTNV-1">
          <mxGeometry x="720" y="260" width="120" height="50" as="geometry" />
        </mxCell>
        <mxCell id="P2jr7D43vUOo1likfWEo-87" style="edgeStyle=none;rounded=0;orthogonalLoop=1;jettySize=auto;html=1;exitX=0.5;exitY=0;exitDx=0;exitDy=0;entryX=0.5;entryY=1;entryDx=0;entryDy=0;dashed=1;" edge="1" parent="WIyWlLk6GJQsqaUBKTNV-1" source="P2jr7D43vUOo1likfWEo-18" target="P2jr7D43vUOo1likfWEo-86">
          <mxGeometry relative="1" as="geometry" />
        </mxCell>
        <mxCell id="P2jr7D43vUOo1likfWEo-18" value="CRUD Article" style="ellipse;whiteSpace=wrap;html=1;" vertex="1" parent="WIyWlLk6GJQsqaUBKTNV-1">
          <mxGeometry x="827" y="310" width="120" height="50" as="geometry" />
        </mxCell>
        <mxCell id="P2jr7D43vUOo1likfWEo-92" style="edgeStyle=none;rounded=0;orthogonalLoop=1;jettySize=auto;html=1;exitX=1;exitY=0;exitDx=0;exitDy=0;entryX=0;entryY=0.5;entryDx=0;entryDy=0;dashed=1;" edge="1" parent="WIyWlLk6GJQsqaUBKTNV-1" source="P2jr7D43vUOo1likfWEo-19" target="P2jr7D43vUOo1likfWEo-89">
          <mxGeometry relative="1" as="geometry" />
        </mxCell>
        <mxCell id="P2jr7D43vUOo1likfWEo-93" style="edgeStyle=none;rounded=0;orthogonalLoop=1;jettySize=auto;html=1;exitX=1;exitY=0.5;exitDx=0;exitDy=0;entryX=0;entryY=0.5;entryDx=0;entryDy=0;dashed=1;" edge="1" parent="WIyWlLk6GJQsqaUBKTNV-1" source="P2jr7D43vUOo1likfWEo-19" target="P2jr7D43vUOo1likfWEo-91">
          <mxGeometry relative="1" as="geometry" />
        </mxCell>
        <mxCell id="P2jr7D43vUOo1likfWEo-94" style="edgeStyle=none;rounded=0;orthogonalLoop=1;jettySize=auto;html=1;exitX=1;exitY=1;exitDx=0;exitDy=0;entryX=0;entryY=0;entryDx=0;entryDy=0;dashed=1;" edge="1" parent="WIyWlLk6GJQsqaUBKTNV-1" source="P2jr7D43vUOo1likfWEo-19" target="P2jr7D43vUOo1likfWEo-90">
          <mxGeometry relative="1" as="geometry" />
        </mxCell>
        <mxCell id="P2jr7D43vUOo1likfWEo-19" value="CRUD Game" style="ellipse;whiteSpace=wrap;html=1;" vertex="1" parent="WIyWlLk6GJQsqaUBKTNV-1">
          <mxGeometry x="840" y="380" width="120" height="50" as="geometry" />
        </mxCell>
        <mxCell id="P2jr7D43vUOo1likfWEo-20" value="CRUD Dev" style="ellipse;whiteSpace=wrap;html=1;" vertex="1" parent="WIyWlLk6GJQsqaUBKTNV-1">
          <mxGeometry x="840" y="460" width="120" height="50" as="geometry" />
        </mxCell>
        <mxCell id="P2jr7D43vUOo1likfWEo-21" value="CRUD Platform" style="ellipse;whiteSpace=wrap;html=1;" vertex="1" parent="WIyWlLk6GJQsqaUBKTNV-1">
          <mxGeometry x="840" y="530" width="120" height="50" as="geometry" />
        </mxCell>
        <mxCell id="P2jr7D43vUOo1likfWEo-22" value="CRUD Publisher" style="ellipse;whiteSpace=wrap;html=1;" vertex="1" parent="WIyWlLk6GJQsqaUBKTNV-1">
          <mxGeometry x="800" y="590" width="120" height="50" as="geometry" />
        </mxCell>
        <mxCell id="P2jr7D43vUOo1likfWEo-23" value="CRUD Genre" style="ellipse;whiteSpace=wrap;html=1;" vertex="1" parent="WIyWlLk6GJQsqaUBKTNV-1">
          <mxGeometry x="590" y="260" width="120" height="50" as="geometry" />
        </mxCell>
        <mxCell id="P2jr7D43vUOo1likfWEo-24" value="&amp;nbsp;CRUD Player Type" style="ellipse;whiteSpace=wrap;html=1;" vertex="1" parent="WIyWlLk6GJQsqaUBKTNV-1">
          <mxGeometry x="457.5" y="260" width="120" height="50" as="geometry" />
        </mxCell>
        <mxCell id="P2jr7D43vUOo1likfWEo-25" value="CRUD Language" style="ellipse;whiteSpace=wrap;html=1;" vertex="1" parent="WIyWlLk6GJQsqaUBKTNV-1">
          <mxGeometry x="660" y="600" width="120" height="50" as="geometry" />
        </mxCell>
        <mxCell id="P2jr7D43vUOo1likfWEo-26" value="CRUD Web Language" style="ellipse;whiteSpace=wrap;html=1;" vertex="1" parent="WIyWlLk6GJQsqaUBKTNV-1">
          <mxGeometry x="530" y="590" width="120" height="50" as="geometry" />
        </mxCell>
        <mxCell id="P2jr7D43vUOo1likfWEo-27" value="CRUD Web Text" style="ellipse;whiteSpace=wrap;html=1;" vertex="1" parent="WIyWlLk6GJQsqaUBKTNV-1">
          <mxGeometry x="400" y="570" width="120" height="50" as="geometry" />
        </mxCell>
        <mxCell id="P2jr7D43vUOo1likfWEo-28" value="CRUD Category" style="ellipse;whiteSpace=wrap;html=1;" vertex="1" parent="WIyWlLk6GJQsqaUBKTNV-1">
          <mxGeometry x="320" y="260" width="120" height="50" as="geometry" />
        </mxCell>
        <mxCell id="P2jr7D43vUOo1likfWEo-96" style="edgeStyle=none;rounded=0;orthogonalLoop=1;jettySize=auto;html=1;exitX=0.5;exitY=1;exitDx=0;exitDy=0;entryX=0.5;entryY=0;entryDx=0;entryDy=0;dashed=1;" edge="1" parent="WIyWlLk6GJQsqaUBKTNV-1" source="P2jr7D43vUOo1likfWEo-30" target="P2jr7D43vUOo1likfWEo-95">
          <mxGeometry relative="1" as="geometry" />
        </mxCell>
        <mxCell id="P2jr7D43vUOo1likfWEo-30" value="Crear, ver y actualizar Author" style="ellipse;whiteSpace=wrap;html=1;" vertex="1" parent="WIyWlLk6GJQsqaUBKTNV-1">
          <mxGeometry x="270" y="535" width="130" height="50" as="geometry" />
        </mxCell>
        <mxCell id="P2jr7D43vUOo1likfWEo-32" value="" style="endArrow=none;html=1;rounded=0;entryX=0;entryY=0.5;entryDx=0;entryDy=0;" edge="1" parent="WIyWlLk6GJQsqaUBKTNV-1" target="P2jr7D43vUOo1likfWEo-3">
          <mxGeometry width="50" height="50" relative="1" as="geometry">
            <mxPoint x="380" y="405" as="sourcePoint" />
            <mxPoint x="420" y="420" as="targetPoint" />
          </mxGeometry>
        </mxCell>
        <mxCell id="P2jr7D43vUOo1likfWEo-33" value="&amp;lt;&amp;lt;include&amp;gt;&amp;gt;" style="text;html=1;strokeColor=none;fillColor=none;align=center;verticalAlign=middle;whiteSpace=wrap;rounded=0;rotation=-45;" vertex="1" parent="WIyWlLk6GJQsqaUBKTNV-1">
          <mxGeometry x="365" y="480" width="75" height="30" as="geometry" />
        </mxCell>
        <mxCell id="P2jr7D43vUOo1likfWEo-48" style="edgeStyle=orthogonalEdgeStyle;rounded=0;orthogonalLoop=1;jettySize=auto;html=1;exitX=0.5;exitY=1;exitDx=0;exitDy=0;" edge="1" parent="WIyWlLk6GJQsqaUBKTNV-1" source="P2jr7D43vUOo1likfWEo-20" target="P2jr7D43vUOo1likfWEo-20">
          <mxGeometry relative="1" as="geometry" />
        </mxCell>
        <mxCell id="P2jr7D43vUOo1likfWEo-63" value="&amp;lt;&amp;lt;include&amp;gt;&amp;gt;" style="text;html=1;strokeColor=none;fillColor=none;align=center;verticalAlign=middle;whiteSpace=wrap;rounded=0;rotation=-75;" vertex="1" parent="WIyWlLk6GJQsqaUBKTNV-1">
          <mxGeometry x="413.5" y="500" width="75" height="30" as="geometry" />
        </mxCell>
        <mxCell id="P2jr7D43vUOo1likfWEo-64" value="&amp;lt;&amp;lt;include&amp;gt;&amp;gt;" style="text;html=1;strokeColor=none;fillColor=none;align=center;verticalAlign=middle;whiteSpace=wrap;rounded=0;rotation=60;" vertex="1" parent="WIyWlLk6GJQsqaUBKTNV-1">
          <mxGeometry x="500" y="480" width="75" height="30" as="geometry" />
        </mxCell>
        <mxCell id="P2jr7D43vUOo1likfWEo-66" style="edgeStyle=none;rounded=0;orthogonalLoop=1;jettySize=auto;html=1;exitX=0.5;exitY=1;exitDx=0;exitDy=0;" edge="1" parent="WIyWlLk6GJQsqaUBKTNV-1" source="P2jr7D43vUOo1likfWEo-64" target="P2jr7D43vUOo1likfWEo-64">
          <mxGeometry relative="1" as="geometry" />
        </mxCell>
        <mxCell id="P2jr7D43vUOo1likfWEo-67" value="&amp;lt;&amp;lt;include&amp;gt;&amp;gt;" style="text;html=1;strokeColor=none;fillColor=none;align=center;verticalAlign=middle;whiteSpace=wrap;rounded=0;rotation=45;" vertex="1" parent="WIyWlLk6GJQsqaUBKTNV-1">
          <mxGeometry x="585" y="510" width="75" height="30" as="geometry" />
        </mxCell>
        <mxCell id="P2jr7D43vUOo1likfWEo-68" value="&amp;lt;&amp;lt;include&amp;gt;&amp;gt;" style="text;html=1;strokeColor=none;fillColor=none;align=center;verticalAlign=middle;whiteSpace=wrap;rounded=0;rotation=30;" vertex="1" parent="WIyWlLk6GJQsqaUBKTNV-1">
          <mxGeometry x="660" y="480" width="75" height="30" as="geometry" />
        </mxCell>
        <mxCell id="P2jr7D43vUOo1likfWEo-69" value="&amp;lt;&amp;lt;include&amp;gt;&amp;gt;" style="text;html=1;strokeColor=none;fillColor=none;align=center;verticalAlign=middle;whiteSpace=wrap;rounded=0;rotation=30;" vertex="1" parent="WIyWlLk6GJQsqaUBKTNV-1">
          <mxGeometry x="645" y="515" width="75" height="30" as="geometry" />
        </mxCell>
        <mxCell id="P2jr7D43vUOo1likfWEo-73" value="&amp;lt;&amp;lt;include&amp;gt;&amp;gt;" style="text;html=1;strokeColor=none;fillColor=none;align=center;verticalAlign=middle;whiteSpace=wrap;rounded=0;rotation=15;" vertex="1" parent="WIyWlLk6GJQsqaUBKTNV-1">
          <mxGeometry x="700" y="450" width="75" height="30" as="geometry" />
        </mxCell>
        <mxCell id="P2jr7D43vUOo1likfWEo-74" value="&amp;lt;&amp;lt;include&amp;gt;&amp;gt;" style="text;html=1;strokeColor=none;fillColor=none;align=center;verticalAlign=middle;whiteSpace=wrap;rounded=0;rotation=0;" vertex="1" parent="WIyWlLk6GJQsqaUBKTNV-1">
          <mxGeometry x="752" y="410" width="75" height="30" as="geometry" />
        </mxCell>
        <mxCell id="P2jr7D43vUOo1likfWEo-76" value="&amp;lt;&amp;lt;include&amp;gt;&amp;gt;" style="text;html=1;strokeColor=none;fillColor=none;align=center;verticalAlign=middle;whiteSpace=wrap;rounded=0;rotation=-20;" vertex="1" parent="WIyWlLk6GJQsqaUBKTNV-1">
          <mxGeometry x="705" y="320" width="75" height="30" as="geometry" />
        </mxCell>
        <mxCell id="P2jr7D43vUOo1likfWEo-77" value="&amp;lt;&amp;lt;include&amp;gt;&amp;gt;" style="text;html=1;strokeColor=none;fillColor=none;align=center;verticalAlign=middle;whiteSpace=wrap;rounded=0;rotation=-15;" vertex="1" parent="WIyWlLk6GJQsqaUBKTNV-1">
          <mxGeometry x="742.5" y="350" width="75" height="30" as="geometry" />
        </mxCell>
        <mxCell id="P2jr7D43vUOo1likfWEo-78" value="&amp;lt;&amp;lt;include&amp;gt;&amp;gt;" style="text;html=1;strokeColor=none;fillColor=none;align=center;verticalAlign=middle;whiteSpace=wrap;rounded=0;rotation=-60;" vertex="1" parent="WIyWlLk6GJQsqaUBKTNV-1">
          <mxGeometry x="440" y="330" width="75" height="30" as="geometry" />
        </mxCell>
        <mxCell id="P2jr7D43vUOo1likfWEo-79" value="&amp;lt;&amp;lt;include&amp;gt;&amp;gt;" style="text;html=1;strokeColor=none;fillColor=none;align=center;verticalAlign=middle;whiteSpace=wrap;rounded=0;rotation=-30;" vertex="1" parent="WIyWlLk6GJQsqaUBKTNV-1">
          <mxGeometry x="587.5" y="340" width="75" height="30" as="geometry" />
        </mxCell>
        <mxCell id="P2jr7D43vUOo1likfWEo-80" value="&amp;lt;&amp;lt;include&amp;gt;&amp;gt;" style="text;html=1;strokeColor=none;fillColor=none;align=center;verticalAlign=middle;whiteSpace=wrap;rounded=0;rotation=0;" vertex="1" parent="WIyWlLk6GJQsqaUBKTNV-1">
          <mxGeometry x="390" y="310" width="75" height="30" as="geometry" />
        </mxCell>
        <mxCell id="P2jr7D43vUOo1likfWEo-84" value="Ver Juegos Fav" style="ellipse;whiteSpace=wrap;html=1;" vertex="1" parent="WIyWlLk6GJQsqaUBKTNV-1">
          <mxGeometry x="720" y="140" width="120" height="50" as="geometry" />
        </mxCell>
        <mxCell id="P2jr7D43vUOo1likfWEo-86" value="Ver Juegos del artículo" style="ellipse;whiteSpace=wrap;html=1;" vertex="1" parent="WIyWlLk6GJQsqaUBKTNV-1">
          <mxGeometry x="880" y="190" width="120" height="50" as="geometry" />
        </mxCell>
        <mxCell id="P2jr7D43vUOo1likfWEo-89" value="Ver géneros del juego" style="ellipse;whiteSpace=wrap;html=1;" vertex="1" parent="WIyWlLk6GJQsqaUBKTNV-1">
          <mxGeometry x="1040" y="290" width="120" height="50" as="geometry" />
        </mxCell>
        <mxCell id="P2jr7D43vUOo1likfWEo-90" value="Ver idiomas del juego" style="ellipse;whiteSpace=wrap;html=1;" vertex="1" parent="WIyWlLk6GJQsqaUBKTNV-1">
          <mxGeometry x="1040" y="470" width="120" height="50" as="geometry" />
        </mxCell>
        <mxCell id="P2jr7D43vUOo1likfWEo-91" value="Ver tipo del juego" style="ellipse;whiteSpace=wrap;html=1;" vertex="1" parent="WIyWlLk6GJQsqaUBKTNV-1">
          <mxGeometry x="1040" y="380" width="120" height="50" as="geometry" />
        </mxCell>
        <mxCell id="P2jr7D43vUOo1likfWEo-95" value="Ver noticias del Autor" style="ellipse;whiteSpace=wrap;html=1;" vertex="1" parent="WIyWlLk6GJQsqaUBKTNV-1">
          <mxGeometry x="275" y="670" width="120" height="50" as="geometry" />
        </mxCell>
        <mxCell id="P2jr7D43vUOo1likfWEo-97" value="&amp;lt;&amp;lt;extend&amp;gt;&amp;gt;" style="text;html=1;strokeColor=none;fillColor=none;align=center;verticalAlign=middle;whiteSpace=wrap;rounded=0;rotation=-35;" vertex="1" parent="WIyWlLk6GJQsqaUBKTNV-1">
          <mxGeometry x="947" y="320" width="75" height="30" as="geometry" />
        </mxCell>
        <mxCell id="P2jr7D43vUOo1likfWEo-98" value="&amp;lt;&amp;lt;extend&amp;gt;&amp;gt;" style="text;html=1;strokeColor=none;fillColor=none;align=center;verticalAlign=middle;whiteSpace=wrap;rounded=0;rotation=-90;" vertex="1" parent="WIyWlLk6GJQsqaUBKTNV-1">
          <mxGeometry x="725" y="210" width="75" height="30" as="geometry" />
        </mxCell>
        <mxCell id="P2jr7D43vUOo1likfWEo-99" value="&amp;lt;&amp;lt;extend&amp;gt;&amp;gt;" style="text;html=1;strokeColor=none;fillColor=none;align=center;verticalAlign=middle;whiteSpace=wrap;rounded=0;rotation=-60;" vertex="1" parent="WIyWlLk6GJQsqaUBKTNV-1">
          <mxGeometry x="849.5" y="260" width="75" height="30" as="geometry" />
        </mxCell>
        <mxCell id="P2jr7D43vUOo1likfWEo-100" value="&amp;lt;&amp;lt;extend&amp;gt;&amp;gt;" style="text;html=1;strokeColor=none;fillColor=none;align=center;verticalAlign=middle;whiteSpace=wrap;rounded=0;rotation=0;" vertex="1" parent="WIyWlLk6GJQsqaUBKTNV-1">
          <mxGeometry x="960" y="380" width="75" height="30" as="geometry" />
        </mxCell>
        <mxCell id="P2jr7D43vUOo1likfWEo-102" value="&amp;lt;&amp;lt;extend&amp;gt;&amp;gt;" style="text;html=1;strokeColor=none;fillColor=none;align=center;verticalAlign=middle;whiteSpace=wrap;rounded=0;rotation=30;" vertex="1" parent="WIyWlLk6GJQsqaUBKTNV-1">
          <mxGeometry x="965" y="420" width="75" height="30" as="geometry" />
        </mxCell>
        <mxCell id="P2jr7D43vUOo1likfWEo-104" value="&amp;lt;&amp;lt;extend&amp;gt;&amp;gt;" style="text;html=1;strokeColor=none;fillColor=none;align=center;verticalAlign=middle;whiteSpace=wrap;rounded=0;rotation=-90;" vertex="1" parent="WIyWlLk6GJQsqaUBKTNV-1">
          <mxGeometry x="275" y="610" width="75" height="30" as="geometry" />
        </mxCell>
      </root>
    </mxGraphModel>
  </diagram>
</mxfile>
